<mxfile host="65bd71144e" pages="3">
    <diagram id="vxa8Ra4bLepOVzdz7dNh" name="Outline">
        <mxGraphModel dx="986" dy="434" grid="1" gridSize="10" guides="1" tooltips="1" connect="1" arrows="1" fold="1" page="1" pageScale="1" pageWidth="850" pageHeight="1100" math="0" shadow="0">
            <root>
                <mxCell id="0"/>
                <mxCell id="1" parent="0"/>
                <mxCell id="-iHkvT1LjvYKonsNMp0C-1" value="" style="rounded=0;whiteSpace=wrap;html=1;" parent="1" vertex="1">
                    <mxGeometry x="40" y="90" width="730" height="950" as="geometry"/>
                </mxCell>
                <mxCell id="-iHkvT1LjvYKonsNMp0C-2" value="" style="rounded=0;whiteSpace=wrap;html=1;" parent="1" vertex="1">
                    <mxGeometry x="85" y="230" width="295" height="120" as="geometry"/>
                </mxCell>
                <mxCell id="-iHkvT1LjvYKonsNMp0C-3" value="" style="rounded=0;whiteSpace=wrap;html=1;" parent="1" vertex="1">
                    <mxGeometry x="400" y="230" width="340" height="120" as="geometry"/>
                </mxCell>
                <mxCell id="-iHkvT1LjvYKonsNMp0C-4" value="" style="rounded=0;whiteSpace=wrap;html=1;" parent="1" vertex="1">
                    <mxGeometry x="410" y="385" width="340" height="120" as="geometry"/>
                </mxCell>
                <mxCell id="-iHkvT1LjvYKonsNMp0C-5" value="" style="rounded=0;whiteSpace=wrap;html=1;" parent="1" vertex="1">
                    <mxGeometry x="80" y="385" width="300" height="60" as="geometry"/>
                </mxCell>
                <mxCell id="-iHkvT1LjvYKonsNMp0C-6" value="" style="rounded=0;whiteSpace=wrap;html=1;" parent="1" vertex="1">
                    <mxGeometry x="70" y="620" width="320" height="210" as="geometry"/>
                </mxCell>
                <mxCell id="-iHkvT1LjvYKonsNMp0C-7" value="" style="rounded=0;whiteSpace=wrap;html=1;" parent="1" vertex="1">
                    <mxGeometry x="85" y="960" width="655" height="60" as="geometry"/>
                </mxCell>
                <mxCell id="-iHkvT1LjvYKonsNMp0C-8" value="" style="rounded=0;whiteSpace=wrap;html=1;" parent="1" vertex="1">
                    <mxGeometry x="85" y="120" width="655" height="60" as="geometry"/>
                </mxCell>
                <mxCell id="-iHkvT1LjvYKonsNMp0C-9" value="" style="rounded=0;whiteSpace=wrap;html=1;" parent="1" vertex="1">
                    <mxGeometry x="440" y="550" width="310" height="80" as="geometry"/>
                </mxCell>
                <mxCell id="-iHkvT1LjvYKonsNMp0C-10" value="" style="rounded=0;whiteSpace=wrap;html=1;" parent="1" vertex="1">
                    <mxGeometry x="440" y="760" width="140" height="140" as="geometry"/>
                </mxCell>
                <mxCell id="-iHkvT1LjvYKonsNMp0C-11" value="" style="rounded=0;whiteSpace=wrap;html=1;" parent="1" vertex="1">
                    <mxGeometry x="610" y="760" width="140" height="140" as="geometry"/>
                </mxCell>
                <mxCell id="-iHkvT1LjvYKonsNMp0C-12" value="Header" style="text;html=1;strokeColor=none;fillColor=none;align=center;verticalAlign=middle;whiteSpace=wrap;rounded=0;fontSize=18;" parent="1" vertex="1">
                    <mxGeometry x="365" y="135" width="60" height="30" as="geometry"/>
                </mxCell>
                <mxCell id="-iHkvT1LjvYKonsNMp0C-13" value="cschool @ 2023" style="text;html=1;strokeColor=none;fillColor=none;align=center;verticalAlign=middle;whiteSpace=wrap;rounded=0;fontSize=18;" parent="1" vertex="1">
                    <mxGeometry x="327.5" y="975" width="155" height="30" as="geometry"/>
                </mxCell>
                <mxCell id="-iHkvT1LjvYKonsNMp0C-14" value="School" style="text;html=1;strokeColor=none;fillColor=none;align=center;verticalAlign=middle;whiteSpace=wrap;rounded=0;fontSize=18;" parent="1" vertex="1">
                    <mxGeometry x="200" y="275" width="60" height="30" as="geometry"/>
                </mxCell>
                <mxCell id="-iHkvT1LjvYKonsNMp0C-15" value="Near by" style="text;html=1;strokeColor=none;fillColor=none;align=center;verticalAlign=middle;whiteSpace=wrap;rounded=0;fontSize=18;" parent="1" vertex="1">
                    <mxGeometry x="530" y="275" width="90" height="30" as="geometry"/>
                </mxCell>
                <mxCell id="-iHkvT1LjvYKonsNMp0C-16" value="Events" style="text;html=1;strokeColor=none;fillColor=none;align=center;verticalAlign=middle;whiteSpace=wrap;rounded=0;fontSize=18;" parent="1" vertex="1">
                    <mxGeometry x="185" y="400" width="90" height="30" as="geometry"/>
                </mxCell>
                <mxCell id="-iHkvT1LjvYKonsNMp0C-17" value="Schoolarship programs" style="text;html=1;strokeColor=none;fillColor=none;align=center;verticalAlign=middle;whiteSpace=wrap;rounded=0;fontSize=18;" parent="1" vertex="1">
                    <mxGeometry x="440" y="445" width="270" height="30" as="geometry"/>
                </mxCell>
                <mxCell id="-iHkvT1LjvYKonsNMp0C-18" value="SDP" style="text;html=1;strokeColor=none;fillColor=none;align=center;verticalAlign=middle;whiteSpace=wrap;rounded=0;fontSize=18;" parent="1" vertex="1">
                    <mxGeometry x="550" y="580" width="90" height="30" as="geometry"/>
                </mxCell>
                <mxCell id="-iHkvT1LjvYKonsNMp0C-19" value="Buy Items" style="text;html=1;strokeColor=none;fillColor=none;align=center;verticalAlign=middle;whiteSpace=wrap;rounded=0;fontSize=18;" parent="1" vertex="1">
                    <mxGeometry x="185" y="715" width="90" height="30" as="geometry"/>
                </mxCell>
                <mxCell id="-iHkvT1LjvYKonsNMp0C-20" value="Subscribe" style="text;html=1;strokeColor=none;fillColor=none;align=center;verticalAlign=middle;whiteSpace=wrap;rounded=0;fontSize=18;" parent="1" vertex="1">
                    <mxGeometry x="465" y="820" width="90" height="30" as="geometry"/>
                </mxCell>
                <mxCell id="-iHkvT1LjvYKonsNMp0C-21" value="Login" style="text;html=1;strokeColor=none;fillColor=none;align=center;verticalAlign=middle;whiteSpace=wrap;rounded=0;fontSize=18;" parent="1" vertex="1">
                    <mxGeometry x="650" y="135" width="60" height="30" as="geometry"/>
                </mxCell>
                <mxCell id="-iHkvT1LjvYKonsNMp0C-22" value="About us" style="text;html=1;strokeColor=none;fillColor=none;align=center;verticalAlign=middle;whiteSpace=wrap;rounded=0;fontSize=18;" parent="1" vertex="1">
                    <mxGeometry x="550" y="135" width="90" height="30" as="geometry"/>
                </mxCell>
                <mxCell id="-iHkvT1LjvYKonsNMp0C-23" value="Feature Comming soon" style="text;html=1;strokeColor=none;fillColor=none;align=center;verticalAlign=middle;whiteSpace=wrap;rounded=0;fontSize=18;" parent="1" vertex="1">
                    <mxGeometry x="630" y="800" width="100" height="80" as="geometry"/>
                </mxCell>
                <mxCell id="-iHkvT1LjvYKonsNMp0C-25" value="" style="rounded=0;whiteSpace=wrap;html=1;" parent="1" vertex="1">
                    <mxGeometry x="440" y="660" width="310" height="80" as="geometry"/>
                </mxCell>
                <mxCell id="-iHkvT1LjvYKonsNMp0C-26" value="Exams" style="text;html=1;strokeColor=none;fillColor=none;align=center;verticalAlign=middle;whiteSpace=wrap;rounded=0;fontSize=18;" parent="1" vertex="1">
                    <mxGeometry x="550" y="685" width="90" height="30" as="geometry"/>
                </mxCell>
            </root>
        </mxGraphModel>
    </diagram>
    <diagram id="JW87cSI5YYAgmTYq2tJ8" name="School">
        <mxGraphModel dx="986" dy="1534" grid="1" gridSize="10" guides="1" tooltips="1" connect="1" arrows="1" fold="1" page="1" pageScale="1" pageWidth="850" pageHeight="1100" math="0" shadow="0">
            <root>
                <mxCell id="0"/>
                <mxCell id="1" parent="0"/>
                <mxCell id="hxYGUtcyefzVXIuUIyP--1" value="" style="rounded=0;whiteSpace=wrap;html=1;fontSize=18;" parent="1" vertex="1">
                    <mxGeometry x="40" y="-100" width="760" height="790" as="geometry"/>
                </mxCell>
                <mxCell id="hxYGUtcyefzVXIuUIyP--2" value="" style="rounded=0;whiteSpace=wrap;html=1;fontSize=18;" parent="1" vertex="1">
                    <mxGeometry x="120" y="220" width="580" height="50" as="geometry"/>
                </mxCell>
                <mxCell id="hxYGUtcyefzVXIuUIyP--4" value="" style="rounded=0;whiteSpace=wrap;html=1;fontSize=18;" parent="1" vertex="1">
                    <mxGeometry x="120" y="60" width="580" height="130" as="geometry"/>
                </mxCell>
                <mxCell id="hxYGUtcyefzVXIuUIyP--5" value="" style="rounded=0;whiteSpace=wrap;html=1;fontSize=18;" parent="1" vertex="1">
                    <mxGeometry x="120" y="410" width="230" height="140" as="geometry"/>
                </mxCell>
                <mxCell id="hxYGUtcyefzVXIuUIyP--6" value="" style="rounded=0;whiteSpace=wrap;html=1;fontSize=18;" parent="1" vertex="1">
                    <mxGeometry x="120" y="570" width="580" height="50" as="geometry"/>
                </mxCell>
                <mxCell id="hxYGUtcyefzVXIuUIyP--7" value="" style="rounded=0;whiteSpace=wrap;html=1;fontSize=18;" parent="1" vertex="1">
                    <mxGeometry x="370" y="410" width="230" height="140" as="geometry"/>
                </mxCell>
                <mxCell id="hxYGUtcyefzVXIuUIyP--8" value="" style="rounded=0;whiteSpace=wrap;html=1;fontSize=18;" parent="1" vertex="1">
                    <mxGeometry x="620" y="410" width="80" height="140" as="geometry"/>
                </mxCell>
                <mxCell id="hxYGUtcyefzVXIuUIyP--9" value="" style="rounded=0;whiteSpace=wrap;html=1;fontSize=18;" parent="1" vertex="1">
                    <mxGeometry x="120" y="310" width="580" height="50" as="geometry"/>
                </mxCell>
                <mxCell id="hxYGUtcyefzVXIuUIyP--10" value="" style="rounded=0;whiteSpace=wrap;html=1;fontSize=18;" parent="1" vertex="1">
                    <mxGeometry x="120" y="-40" width="580" height="50" as="geometry"/>
                </mxCell>
                <mxCell id="hxYGUtcyefzVXIuUIyP--11" value="" style="ellipse;whiteSpace=wrap;html=1;aspect=fixed;fontSize=18;" parent="1" vertex="1">
                    <mxGeometry x="610" y="-35" width="40" height="40" as="geometry"/>
                </mxCell>
                <mxCell id="hxYGUtcyefzVXIuUIyP--12" value="Search bar" style="text;html=1;strokeColor=none;fillColor=none;align=center;verticalAlign=middle;whiteSpace=wrap;rounded=0;fontSize=18;" parent="1" vertex="1">
                    <mxGeometry x="170" y="-30" width="410" height="30" as="geometry"/>
                </mxCell>
                <mxCell id="hxYGUtcyefzVXIuUIyP--13" value="Banners" style="text;html=1;strokeColor=none;fillColor=none;align=center;verticalAlign=middle;whiteSpace=wrap;rounded=0;fontSize=18;" parent="1" vertex="1">
                    <mxGeometry x="180" y="110" width="410" height="30" as="geometry"/>
                </mxCell>
                <mxCell id="hxYGUtcyefzVXIuUIyP--14" value="School 1" style="text;html=1;strokeColor=none;fillColor=none;align=center;verticalAlign=middle;whiteSpace=wrap;rounded=0;fontSize=18;" parent="1" vertex="1">
                    <mxGeometry x="180" y="230" width="410" height="30" as="geometry"/>
                </mxCell>
                <mxCell id="hxYGUtcyefzVXIuUIyP--15" value="School 2" style="text;html=1;strokeColor=none;fillColor=none;align=center;verticalAlign=middle;whiteSpace=wrap;rounded=0;fontSize=18;" parent="1" vertex="1">
                    <mxGeometry x="180" y="320" width="410" height="30" as="geometry"/>
                </mxCell>
                <mxCell id="hxYGUtcyefzVXIuUIyP--16" value="School 3" style="text;html=1;strokeColor=none;fillColor=none;align=center;verticalAlign=middle;whiteSpace=wrap;rounded=0;fontSize=18;" parent="1" vertex="1">
                    <mxGeometry x="150" y="465" width="170" height="30" as="geometry"/>
                </mxCell>
                <mxCell id="hxYGUtcyefzVXIuUIyP--17" value="School 4" style="text;html=1;strokeColor=none;fillColor=none;align=center;verticalAlign=middle;whiteSpace=wrap;rounded=0;fontSize=18;" parent="1" vertex="1">
                    <mxGeometry x="410" y="465" width="170" height="30" as="geometry"/>
                </mxCell>
                <mxCell id="hxYGUtcyefzVXIuUIyP--18" value="School 5" style="text;html=1;strokeColor=none;fillColor=none;align=center;verticalAlign=middle;whiteSpace=wrap;rounded=0;fontSize=18;" parent="1" vertex="1">
                    <mxGeometry x="341" y="580" width="170" height="30" as="geometry"/>
                </mxCell>
            </root>
        </mxGraphModel>
    </diagram>
    <diagram id="sx8KPO6p0RM6-kHSU3wf" name="Login">
        <mxGraphModel dx="986" dy="434" grid="1" gridSize="10" guides="1" tooltips="1" connect="1" arrows="1" fold="1" page="1" pageScale="1" pageWidth="850" pageHeight="1100" math="0" shadow="0">
            <root>
                <mxCell id="0"/>
                <mxCell id="1" parent="0"/>
                <mxCell id="F627LdKJVtPC6EhGx5WK-1" value="" style="rounded=0;whiteSpace=wrap;html=1;fontSize=18;" parent="1" vertex="1">
                    <mxGeometry x="130" y="130" width="630" height="420" as="geometry"/>
                </mxCell>
                <mxCell id="F627LdKJVtPC6EhGx5WK-2" value="" style="rounded=0;whiteSpace=wrap;html=1;fontSize=18;" parent="1" vertex="1">
                    <mxGeometry x="230" y="210" width="410" height="60" as="geometry"/>
                </mxCell>
                <mxCell id="F627LdKJVtPC6EhGx5WK-3" value="" style="rounded=0;whiteSpace=wrap;html=1;fontSize=18;" parent="1" vertex="1">
                    <mxGeometry x="230" y="320" width="410" height="60" as="geometry"/>
                </mxCell>
                <mxCell id="F627LdKJVtPC6EhGx5WK-4" value="" style="rounded=0;whiteSpace=wrap;html=1;fontSize=18;" parent="1" vertex="1">
                    <mxGeometry x="240" y="440" width="410" height="60" as="geometry"/>
                </mxCell>
                <mxCell id="F627LdKJVtPC6EhGx5WK-5" value="Login" style="text;html=1;strokeColor=none;fillColor=none;align=center;verticalAlign=middle;whiteSpace=wrap;rounded=0;fontSize=18;" parent="1" vertex="1">
                    <mxGeometry x="390" y="230" width="60" height="30" as="geometry"/>
                </mxCell>
                <mxCell id="F627LdKJVtPC6EhGx5WK-6" value="Sign up" style="text;html=1;strokeColor=none;fillColor=none;align=center;verticalAlign=middle;whiteSpace=wrap;rounded=0;fontSize=18;" parent="1" vertex="1">
                    <mxGeometry x="382.5" y="335" width="105" height="30" as="geometry"/>
                </mxCell>
                <mxCell id="F627LdKJVtPC6EhGx5WK-7" value="Continue" style="text;html=1;strokeColor=none;fillColor=none;align=center;verticalAlign=middle;whiteSpace=wrap;rounded=0;fontSize=18;" parent="1" vertex="1">
                    <mxGeometry x="382.5" y="455" width="105" height="30" as="geometry"/>
                </mxCell>
            </root>
        </mxGraphModel>
    </diagram>
</mxfile>
